session1_knee.mot
version=1
nRows=416
nColumns=2
inDegrees=yes
endheader
time	knee_angle_r
5.001929	71.408274
5.007151	73.190899
5.008173	73.233798
5.013677	74.137018
5.014578	74.177469
5.018380	74.739676
5.019223	75.185903
5.023568	75.671574
5.026701	76.146888
5.030233	76.684101
5.032448	77.136110
5.034478	77.656316
5.047021	79.424083
5.048107	79.477991
5.050326	79.954707
5.053914	80.837706
5.056106	80.846642
5.058661	81.354305
5.062917	81.815735
5.065077	82.242383
5.069042	82.739867
5.070439	83.189900
5.073578	83.673607
5.076157	84.117542
5.079259	84.596541
5.082269	85.042478
5.086391	85.491826
5.088547	85.985715
5.091611	86.481788
5.097056	87.449010
5.098162	87.446991
5.100136	87.913158
5.105656	88.876750
5.106681	88.873533
5.109698	89.345278
5.112804	89.812932
5.116383	90.307645
5.119475	90.843490
5.121882	91.288405
5.125310	91.758983
5.128418	92.275023
5.130428	92.761994
5.133526	93.246874
5.136762	93.796167
5.152050	96.186695
5.154289	96.650714
5.157562	97.179812
5.160828	97.635777
5.162803	98.106456
5.166314	98.619446
5.169439	99.100678
5.172692	99.579620
5.176153	100.043602
5.180549	100.971028
5.181584	100.973300
5.185483	101.948179
5.186425	101.947545
5.189522	102.378184
5.193594	102.807710
5.196526	103.270809
5.198582	103.691511
5.202179	104.095139
5.204717	104.493434
5.208311	104.936035
5.210358	104.922515
5.213791	105.313746
5.217455	105.693488
5.219458	106.162517
5.223745	106.923770
5.225732	107.322634
5.229828	107.685225
5.232312	108.047464
5.235385	108.432854
5.240679	108.772934
5.250452	110.014145
5.252130	110.103437
5.257033	110.434683
5.264671	111.503643
5.266639	111.883708
5.270645	112.547953
5.274820	112.916545
5.276761	113.300117
5.280428	113.489524
5.283699	113.887432
5.286325	114.303107
5.288974	114.749496
5.293353	115.398842
5.294452	115.550048
5.298942	116.199557
5.301328	116.564349
5.303993	116.895011
5.307527	117.195192
5.310545	117.477975
5.315139	117.718523
5.316155	117.779602
5.318484	118.012369
5.322162	118.205564
5.324836	118.374204
5.331316	118.639294
5.335230	118.778684
5.336464	118.794896
5.340326	118.824918
5.343036	118.813060
5.358928	118.725080
5.361804	118.685578
5.364219	118.658205
5.365447	118.637313
5.369786	118.608302
5.373542	118.512925
5.377624	118.491762
5.378532	118.568226
5.381512	118.570015
5.384468	118.549973
5.386416	118.500063
5.390468	118.467814
5.392881	118.439417
5.397577	118.404085
5.398567	118.365940
5.402210	118.304611
5.404984	118.231704
5.407583	118.127370
5.410280	118.032757
5.414828	117.828226
5.417977	117.820684
5.419533	117.541088
5.423407	117.514125
5.424433	117.497828
5.428130	117.352157
5.434485	116.929926
5.437380	116.901187
5.441304	116.576766
5.443249	116.404543
5.455029	116.204997
5.458487	115.528881
5.461108	115.372794
5.464541	115.186818
5.467496	114.997013
5.470253	114.785370
5.473359	114.560339
5.475975	114.526854
5.478689	114.263295
5.481616	114.031673
5.484946	113.588308
5.486990	113.546168
5.491150	113.313539
5.493764	113.077699
5.498190	112.645841
5.498865	112.609861
5.502549	112.207046
5.508816	111.893179
5.511686	111.646559
5.515569	111.148246
5.516735	111.089871
5.520665	110.784935
5.523310	110.478144
5.527115	110.103691
5.530174	109.774176
5.531150	109.440429
5.535453	109.030054
5.539303	108.667846
5.542193	108.303396
5.544525	107.918758
5.548310	107.526517
5.561618	104.976321
5.564519	104.903170
5.566960	104.323189
5.570948	103.243679
5.573441	103.144682
5.575781	102.482015
5.580361	101.868258
5.581531	101.287643
5.586554	100.547742
5.587532	99.931376
5.591397	99.306563
5.594233	98.628245
5.598169	98.016087
5.601089	97.421238
5.604404	96.259761
5.606562	96.134738
5.610783	95.532131
5.615149	94.433242
5.616761	93.856411
5.619886	93.275287
5.622471	92.705386
5.625395	92.676077
5.630537	91.523428
5.631951	91.522466
5.634603	90.357160
5.638245	89.847084
5.641068	89.315775
5.643959	88.719874
5.647847	88.190774
5.649300	88.168304
5.660157	85.242741
5.664423	85.014644
5.666987	84.163285
5.669966	82.632010
5.672876	82.553646
5.676746	81.158880
5.681200	80.530657
5.682906	79.877078
5.685907	79.301374
5.688795	79.256609
5.691296	78.733209
5.694017	78.221701
5.698192	77.657879
5.701090	76.644293
5.703657	76.103419
5.706106	75.640450
5.710087	75.166104
5.714103	74.641579
5.716096	74.180201
5.717333	74.215818
5.722159	73.237595
5.725034	72.678470
5.728301	72.134426
5.731118	71.572738
5.733532	70.952734
5.736390	70.391257
5.740165	69.819927
5.741942	69.756906
5.746381	68.655323
5.747362	68.580501
5.752097	67.445902
5.759110	67.349206
5.761607	64.507543
5.764105	64.405451
5.765052	64.294597
5.766268	64.184947
5.770081	63.366568
5.772919	62.550953
5.775440	61.799989
5.781678	60.233538
5.784018	59.445353
5.787010	58.749201
5.789968	58.066319
5.794387	57.383147
5.797252	57.279532
5.799941	56.222126
5.802399	55.580744
5.805521	55.050651
5.808293	54.535869
5.812375	54.061722
5.815159	53.568203
5.818055	53.155312
5.820142	53.213174
5.823110	52.368905
5.826891	52.000863
5.831227	51.628142
5.832384	51.186359
5.836284	50.757672
5.838991	50.742897
5.841567	49.369350
5.845559	49.322285
5.848466	48.789840
5.849705	48.727905
5.854569	47.714709
5.866300	46.953252
5.868843	45.162429
5.871524	44.626777
5.874329	44.074105
5.876774	43.581892
5.882102	42.993099
5.885937	42.033847
5.887633	41.965841
5.892456	41.060879
5.895530	40.528648
5.898197	40.081873
5.899340	40.087856
5.903634	39.233895
5.906514	39.269169
5.909292	38.905462
5.914015	38.155651
5.915177	38.217279
5.917972	37.553883
5.921733	37.237321
5.924611	36.937641
5.929478	36.640647
5.930693	36.709140
5.933515	36.423536
5.936204	36.030225
5.940263	35.192328
5.943459	34.756123
5.947562	34.361257
5.950247	33.948835
5.951773	33.908135
5.955554	33.416747
5.972189	30.958739
5.973198	30.543601
5.977124	30.149793
5.981095	29.770185
5.982262	29.365708
5.986661	28.995086
5.989224	28.672958
5.991453	28.646732
5.995325	27.975768
6.007593	26.544274
6.011165	26.126345
6.015697	25.218454
6.019046	24.723122
6.022112	24.224665
6.024105	23.770045
6.027914	23.296516
6.030422	22.850365
6.034184	22.387876
6.037324	21.939935
6.039831	21.545568
6.043686	21.149299
6.048167	20.768635
6.049362	20.449251
6.052105	20.084320
6.055804	19.825403
6.058732	19.592956
6.066500	18.623907
6.073313	19.193609
6.075616	19.222511
6.079102	19.231442
6.083187	19.069147
6.085878	19.067862
6.089363	19.087548
6.092227	19.197476
6.095074	19.154144
6.097496	19.103483
6.102434	18.915443
6.107490	18.794882
6.108539	18.653738
6.112207	18.484201
6.115704	18.305167
6.118446	18.118067
6.121538	17.913604
6.124407	17.713759
6.126613	17.496165
6.130928	17.288114
6.134705	17.070478
6.135727	16.860382
6.139402	16.617392
6.141680	16.394199
6.144784	16.185049
6.148728	15.962574
6.150927	15.727905
6.155229	15.366192
6.159018	15.156379
6.161916	15.110288
6.172885	14.185259
6.174820	14.164313
6.181324	13.992050
6.182245	13.783076
6.184708	13.556277
6.187604	13.319604
6.190433	13.109263
6.193029	12.876393
6.198163	12.556094
6.199873	12.571889
6.202287	12.456877
6.205031	12.398014
6.207665	12.358998
6.212224	12.359508
6.215095	12.349540
6.216329	12.345259
6.221528	12.305756
6.224082	12.310382
6.226789	12.346150
6.230443	12.298983
6.234567	12.281909
6.235765	12.299418
6.238431	12.257690
6.240710	12.209594
6.246204	12.132260
6.249013	12.011534
6.251652	11.964378
6.254312	11.857461
6.263776	11.579601
6.264831	11.427967
6.266509	11.353325
6.273338	11.207454
6.275756	10.851933
6.280830	10.586032
6.282759	10.501531
6.284410	10.338754
6.286688	10.163447
6.289299	9.988921
6.292895	9.819386
6.295742	9.772052
6.299227	9.622056
6.302809	9.369620
6.305391	9.255531
6.307774	9.145863
6.310601	9.160856
6.314932	8.963506
6.317176	9.000833
6.320183	8.815975
6.321983	8.872589
6.325684	8.759654
6.328945	8.814656
6.331065	8.782568
6.334218	8.818553
6.337345	8.881665
6.340379	8.951043
6.343613	9.014226
6.346656	9.060239
6.348929	9.074946
6.352148	9.096876
6.355155	9.076876
6.359095	9.045789
6.361344	8.977798
6.364254	8.888736
6.367373	8.809732
6.384303	8.056596
6.388540	7.740562
6.391686	7.579737
6.394973	7.337800
6.397682	7.286779
6.400702	7.158677
6.403053	7.053148
6.406194	6.967035
6.409366	6.907462
